<svg height="512" viewBox="0 0 256 256" width="512" xmlns="http://www.w3.org/2000/svg"><path d="m190.729 155.294h-20.841a2.5 2.5 0 0 1 0-5h20.841a2.5 2.5 0 0 1 0 5z" fill="#ebe7f2"/><path d="m86.194 155.294h-20.841a2.5 2.5 0 1 1 0-5h20.841a2.5 2.5 0 0 1 0 5z" fill="#ebe7f2"/><path d="m174.822 35.884h-13.809a2.5 2.5 0 0 0 0 5h13.809a13.422 13.422 0 0 1 13.407 13.407v108.834h-15.841v-91.532a2.5 2.5 0 1 0 -5 0v156.24h-46.847v-129.686l31.915-24.573a2.5 2.5 0 0 0 .127-3.857l-8.5-7.483 4.235-1.7a2.5 2.5 0 0 0 1.446-1.534l6.541-19.829a2.5 2.5 0 0 0 -1.1-2.931l-14.936-8.884a2.5 2.5 0 0 0 -1.269-.356h-21.913a2.5 2.5 0 0 0 -1.278.352l-14.936 8.884a2.5 2.5 0 0 0 -1.1 2.931l6.545 19.833a2.5 2.5 0 0 0 1.441 1.536l8 3.216a2.5 2.5 0 0 0 1.866-4.639l-6.925-2.787-5.548-16.819 12.622-7.507h20.534l12.62 7.507-5.548 16.819-6.922 2.783a2.5 2.5 0 0 0 -.719 4.2l9.261 8.154-23.749 18.287 7.149-20.036 10.951-30.481a2.5 2.5 0 0 0 -2.351-3.349h-21.913a2.5 2.5 0 0 0 -2.353 3.345l10.652 29.648-9.7 27.2a2.5 2.5 0 0 0 -.145.84v130.916h-26.847v-135.166h12.473a2.5 2.5 0 0 0 1.619-.6l6.667-5.666a2.5 2.5 0 0 0 0-3.81l-6.667-5.666a2.5 2.5 0 0 0 -1.619-.6h-12.473v-5.985a2.5 2.5 0 0 0 -5 0v92.785h-15.841v-108.834a13.422 13.422 0 0 1 13.407-13.407h13.891a2.5 2.5 0 0 0 0-5h-13.891a18.428 18.428 0 0 0 -18.407 18.407v111.334a2.5 2.5 0 0 0 2.5 2.5h18.341v62.208a2.5 2.5 0 0 0 2.5 2.5h83.694a2.5 2.5 0 0 0 2.5-2.5v-62.208h18.341a2.5 2.5 0 0 0 2.5-2.5v-111.334a18.428 18.428 0 0 0 -18.407-18.407zm-39.382 5-7.4 20.6-7.4-20.6zm-35.192 40.449 3.725 3.167-3.725 3.167h-11.554v-6.334z" fill="#846f75"/><g fill="#a58bc9"><circle cx="127.971" cy="102.814" r="3.517"/><circle cx="144.318" cy="102.814" r="3.517"/><circle cx="127.971" cy="151.524" r="3.517"/><circle cx="144.318" cy="151.524" r="3.517"/><circle cx="127.971" cy="200.233" r="3.517"/><circle cx="144.318" cy="200.233" r="3.517"/><path d="m75.773 155.294h-10.42a2.5 2.5 0 0 1 -2.5-2.5v-13.375a2.5 2.5 0 0 1 2.5-2.5h10.42a2.5 2.5 0 0 1 2.5 2.5v13.375a2.5 2.5 0 0 1 -2.5 2.5zm-7.92-5h5.42v-8.375h-5.42z"/><path d="m190.729 155.294h-10.42a2.5 2.5 0 0 1 -2.5-2.5v-13.375a2.5 2.5 0 0 1 2.5-2.5h10.42a2.5 2.5 0 0 1 2.5 2.5v13.375a2.5 2.5 0 0 1 -2.5 2.5zm-7.92-5h5.42v-8.375h-5.42z"/></g></svg>