<svg id="Capa_1" enable-background="new 0 0 512 512" height="512" viewBox="0 0 512 512" width="512" xmlns="http://www.w3.org/2000/svg"><g><g><path d="m126.699 246.888c4.142 0 7.5-3.358 7.5-7.5v-110.874l7.526-1.882c24.455-6.113 43.444-25.103 49.557-49.557l5.922-23.689h14.558c-1.06 2.685-1.65 5.605-1.65 8.663 0 13.047 10.615 23.663 23.663 23.663.886 0 1.74-.048 2.58-.116-7.491 18.606-16.123 46.031-20.131 80.5-.479 4.114 2.469 7.837 6.583 8.316.294.034.586.051.875.051 3.754 0 6.996-2.814 7.44-6.634 4.896-42.107 17.26-73.491 24.886-89.625 7.62 16.09 19.954 47.391 24.865 89.625.444 3.82 3.686 6.634 7.44 6.634.289 0 .582-.017.876-.051 4.114-.479 7.062-4.202 6.584-8.316-4.008-34.469-12.64-61.893-20.131-80.5.84.068 1.694.116 2.58.116 13.047 0 23.662-10.615 23.662-23.663 0-3.057-.589-5.978-1.65-8.663h14.558l5.922 23.689c6.113 24.455 25.103 43.444 49.557 49.557l7.527 1.882v110.874c0 4.142 3.357 7.5 7.5 7.5s7.5-3.358 7.5-7.5v-128.621c0-11.686-1.873-23.231-5.568-34.315l-10.594-31.782v-27.068c.003-9.706-7.894-17.602-17.6-17.602h-206.073c-9.706 0-17.602 7.896-17.602 17.602v27.067l-10.594 31.782c-3.695 11.086-5.568 22.631-5.568 34.315v128.622c0 4.142 3.358 7.5 7.5 7.5zm154.126-208.502h-17.325v-23.386h17.325zm15-23.386h17.325v23.386h-17.325zm-47.325 23.386h-17.325v-23.386h17.325zm-32.325 0h-17.325v-23.386h17.325zm17.601 32.325c-4.776 0-8.663-3.886-8.663-8.663s3.886-8.663 8.663-8.663c7.269 0 11.619 5.076 13.701 8.426-.373.675-.792 1.45-1.243 2.301-2.376 3.104-6.397 6.599-12.458 6.599zm44.448 0c-6.085 0-10.127-3.56-12.504-6.685-.436-.82-.842-1.572-1.203-2.226 2.071-3.347 6.407-8.415 13.708-8.415 4.776 0 8.662 3.886 8.662 8.663s-3.887 8.663-8.663 8.663zm99.577 42.342-3.889-.972c-19.069-4.768-33.876-19.575-38.643-38.643l-5.013-20.051h33.476l9.269 27.809c3.185 9.552 4.799 19.501 4.799 29.572v2.285zm-16.162-95.451v20.785h-33.489v-23.387h30.886c1.435 0 2.603 1.167 2.603 2.602zm-211.277 0c0-1.435 1.167-2.602 2.602-2.602h30.886v23.386h-33.488zm-11.364 63.592 9.27-27.808h33.476l-5.013 20.051c-4.767 19.069-19.574 33.876-38.644 38.643l-3.888.972v-2.286c0-10.069 1.615-20.018 4.799-29.572z"/><path d="m392.801 274.464c0-4.142-3.357-7.5-7.5-7.5s-7.5 3.358-7.5 7.5l.001 184.149h-66.96l-47.444-284.66c-.603-3.617-3.731-6.267-7.397-6.267-3.667 0-6.795 2.65-7.398 6.267l-47.443 284.66h-66.96v-184.149c0-4.142-3.358-7.5-7.5-7.5s-7.5 3.358-7.5 7.5v191.649c0 1.989.79 3.897 2.197 5.303 1.406 1.407 3.314 2.197 5.303 2.197h.728v20.785c0 9.706 7.896 17.602 17.602 17.602h40.722c8.716 0 16.028-6.249 17.386-14.856l3.715-23.53h.661c3.667 0 6.795-2.65 7.398-6.267l41.088-246.539 41.091 246.539c.603 3.617 3.731 6.267 7.397 6.267h.661l3.715 23.53c1.359 8.608 8.671 14.856 17.386 14.856h40.723c9.705 0 17.602-7.896 17.602-17.602v-20.785h.728c1.989 0 3.896-.79 5.304-2.197 1.406-1.406 2.196-3.314 2.196-5.303zm-204.482 220.341c-.201 1.272-1.282 2.195-2.57 2.195h-40.722c-1.435 0-2.602-1.167-2.602-2.602v-20.785h49.239zm181.255-.407c0 1.435-1.167 2.602-2.602 2.602h-40.722c-1.288 0-2.368-.924-2.569-2.196l-3.346-21.19h49.24v20.784z"/></g></g></svg>